<svg version="1.2" xmlns="http://www.w3.org/2000/svg" viewBox="0 0 2504 86" width="2504" height="86"><path class="a" d="m47 42.7q0-15.4-3-21.7-2.8-6.4-9.7-6.4-6.8 0-9.7 6.4-3 6.3-3 21.7 0 15.6 3 22 2.9 6.4 9.7 6.4 6.8 0 9.7-6.4 3-6.4 3-22zm21.2 0.2q0 20.5-8.8 31.6-8.8 11.1-25.1 11.1-16.2 0-25.1-11.1-8.8-11.1-8.8-31.6 0-20.5 8.8-31.6 8.9-11.2 25.1-11.2 16.3 0 25.1 11.2 8.8 11.1 8.8 31.6zm57.4-0.2q0-15.4-2.9-21.7-2.9-6.4-9.7-6.4-6.9 0-9.8 6.4-2.9 6.3-2.9 21.7 0 15.6 2.9 22 2.9 6.4 9.8 6.4 6.7 0 9.7-6.4 2.9-6.4 2.9-22zm21.2 0.2q0 20.5-8.8 31.6-8.8 11.1-25 11.1-16.3 0-25.1-11.1-8.9-11.1-8.9-31.6 0-20.5 8.9-31.6 8.8-11.2 25.1-11.2 16.2 0 25 11.2 8.8 11.1 8.8 31.6zm18.7 41.1v-14.7h18.7v-53.2l-19.2 4v-14.5l19.1-4h20.2v67.7h18.8v14.7zm78.6 0v-14.7h18.8v-53.2l-19.3 4v-14.5l19.2-4h20.2v67.7h18.7v14.7zm117.4-41.3q0-15.4-2.9-21.7-2.9-6.4-9.8-6.4-6.8 0-9.7 6.4-2.9 6.3-2.9 21.7 0 15.6 2.9 22 2.9 6.4 9.7 6.4 6.8 0 9.8-6.4 2.9-6.4 2.9-22zm21.2 0.2q0 20.5-8.8 31.6-8.8 11.1-25.1 11.1-16.2 0-25.1-11.1-8.8-11.1-8.8-31.6 0-20.5 8.8-31.6 8.9-11.2 25.1-11.2 16.3 0 25.1 11.2 8.8 11.1 8.8 31.6zm57.4-0.2q0-15.4-2.9-21.7-2.9-6.4-9.7-6.4-6.9 0-9.8 6.4-2.9 6.3-2.9 21.7 0 15.6 2.9 22 2.9 6.4 9.8 6.4 6.8 0 9.7-6.4 2.9-6.4 2.9-22zm21.2 0.2q0 20.5-8.8 31.6-8.8 11.1-25 11.1-16.3 0-25.1-11.1-8.9-11.1-8.9-31.6 0-20.5 8.9-31.6 8.8-11.2 25.1-11.2 16.2 0 25 11.2 8.8 11.1 8.8 31.6zm57.4-0.2q0-15.4-2.9-21.7-2.9-6.4-9.7-6.4-6.8 0-9.8 6.4-2.9 6.3-2.9 21.7 0 15.6 2.9 22 3 6.4 9.8 6.4 6.8 0 9.7-6.4 2.9-6.4 2.9-22zm21.3 0.2q0 20.5-8.9 31.6-8.8 11.1-25 11.1-16.3 0-25.1-11.1-8.8-11.1-8.8-31.6 0-20.5 8.8-31.6 8.8-11.2 25.1-11.2 16.2 0 25 11.2 8.9 11.1 8.9 31.6zm18.6 41.1v-14.7h18.8v-53.2l-19.3 4v-14.5l19.2-4h20.2v67.7h18.7v14.7zm117.4-41.3q0-15.4-2.9-21.7-2.9-6.4-9.8-6.4-6.8 0-9.7 6.4-2.9 6.3-2.9 21.7 0 15.6 2.9 22 2.9 6.4 9.7 6.4 6.8 0 9.8-6.4 2.9-6.4 2.9-22zm21.2 0.2q0 20.5-8.8 31.6-8.8 11.1-25.1 11.1-16.2 0-25.1-11.1-8.8-11.1-8.8-31.6 0-20.5 8.8-31.6 8.9-11.2 25.1-11.2 16.3 0 25.1 11.2 8.8 11.1 8.8 31.6zm57.4-0.2q0-15.4-2.9-21.7-2.9-6.4-9.7-6.4-6.9 0-9.8 6.4-2.9 6.3-2.9 21.7 0 15.6 2.9 22 2.9 6.4 9.8 6.4 6.8 0 9.7-6.4 2.9-6.4 2.9-22zm21.3 0.2q0 20.5-8.9 31.6-8.8 11.1-25 11.1-16.3 0-25.1-11.1-8.9-11.1-8.9-31.6 0-20.5 8.9-31.6 8.8-11.2 25.1-11.2 16.2 0 25 11.2 8.9 11.1 8.9 31.6zm18.6 41.1v-14.7h18.8v-53.2l-19.3 4v-14.5l19.1-4h20.2v67.7h18.8v14.7zm78.6 0v-14.7h18.8v-53.2l-19.3 4v-14.5l19.2-4h20.2v67.7h18.7v14.7zm117.4-41.3q0-15.4-2.9-21.7-2.9-6.4-9.7-6.4-6.9 0-9.8 6.4-2.9 6.3-2.9 21.7 0 15.6 2.9 22 2.9 6.4 9.8 6.4 6.7 0 9.7-6.4 2.9-6.4 2.9-22zm21.2 0.2q0 20.5-8.8 31.6-8.8 11.1-25 11.1-16.3 0-25.1-11.1-8.9-11.1-8.9-31.6 0-20.5 8.9-31.6 8.8-11.2 25.1-11.2 16.2 0 25 11.2 8.8 11.1 8.8 31.6zm57.4-0.2q0-15.4-2.9-21.7-2.9-6.4-9.7-6.4-6.9 0-9.8 6.4-2.9 6.3-2.9 21.7 0 15.6 2.9 22 2.9 6.4 9.8 6.4 6.8 0 9.7-6.4 2.9-6.4 2.9-22zm21.3 0.2q0 20.5-8.9 31.6-8.8 11.1-25 11.1-16.3 0-25.1-11.1-8.9-11.1-8.9-31.6 0-20.5 8.9-31.6 8.8-11.2 25.1-11.2 16.2 0 25 11.2 8.9 11.1 8.9 31.6zm18.6 41.1v-14.7h18.8v-53.2l-19.3 4v-14.5l19.2-4h20.2v67.7h18.7v14.7zm78.6 0v-14.7h18.8v-53.2l-19.3 4v-14.5l19.2-4h20.2v67.7h18.7v14.7zm117.4-41.3q0-15.4-2.9-21.7-2.9-6.4-9.7-6.4-6.9 0-9.8 6.4-2.9 6.3-2.9 21.7 0 15.6 2.9 22 2.9 6.4 9.8 6.4 6.8 0 9.7-6.4 2.9-6.4 2.9-22zm21.2 0.2q0 20.5-8.8 31.6-8.8 11.1-25 11.1-16.3 0-25.1-11.1-8.9-11.1-8.9-31.6 0-20.5 8.9-31.6 8.8-11.2 25.1-11.2 16.2 0 25 11.2 8.8 11.1 8.8 31.6zm57.4-0.2q0-15.4-2.9-21.7-2.9-6.4-9.7-6.4-6.9 0-9.8 6.4-2.9 6.3-2.9 21.7 0 15.6 2.9 22 2.9 6.4 9.8 6.4 6.8 0 9.7-6.4 2.9-6.4 2.9-22zm21.3 0.2q0 20.5-8.9 31.6-8.8 11.1-25 11.1-16.3 0-25.1-11.1-8.8-11.1-8.8-31.6 0-20.5 8.8-31.6 8.8-11.2 25.1-11.2 16.2 0 25 11.2 8.9 11.1 8.9 31.6zm18.6 41.1v-14.7h18.8v-53.2l-19.3 4v-14.5l19.2-4h20.2v67.7h18.7v14.7zm78.6 0v-14.7h18.8v-53.2l-19.2 4v-14.5l19.1-4h20.2v67.7h18.8v14.7zm117.3-41.3q0-15.4-2.9-21.7-2.9-6.4-9.7-6.4-6.9 0-9.8 6.4-2.9 6.3-2.9 21.7 0 15.6 2.9 22 2.9 6.4 9.8 6.4 6.8 0 9.7-6.4 2.9-6.4 2.9-22zm21.3 0.2q0 20.5-8.9 31.6-8.8 11.1-25 11.1-16.3 0-25.1-11.1-8.9-11.1-8.9-31.6 0-20.5 8.9-31.6 8.8-11.2 25.1-11.2 16.2 0 25 11.2 8.9 11.1 8.9 31.6zm57.3-0.2q0-15.4-2.9-21.7-2.9-6.4-9.7-6.4-6.8 0-9.8 6.4-2.9 6.3-2.9 21.7 0 15.6 2.9 22 3 6.4 9.8 6.4 6.8 0 9.7-6.4 2.9-6.4 2.9-22zm21.3 0.2q0 20.5-8.9 31.6-8.8 11.1-25 11.1-16.3 0-25.1-11.1-8.8-11.1-8.8-31.6 0-20.5 8.8-31.6 8.8-11.2 25.1-11.2 16.2 0 25 11.2 8.9 11.1 8.9 31.6zm18.6 41.1v-14.7h18.8v-53.2l-19.3 4v-14.5l19.2-4h20.2v67.7h18.7v14.7zm78.7 0v-14.7h18.7v-53.2l-19.2 4v-14.5l19.1-4h20.2v67.7h18.8v14.7zm117.3-41.3q0-15.4-2.9-21.7-2.9-6.4-9.7-6.4-6.9 0-9.8 6.4-2.9 6.3-2.9 21.7 0 15.6 2.9 22 2.9 6.4 9.8 6.4 6.8 0 9.7-6.4 2.9-6.4 2.9-22zm21.3 0.2q0 20.5-8.9 31.6-8.8 11.1-25 11.1-16.3 0-25.1-11.1-8.9-11.1-8.9-31.6 0-20.5 8.9-31.6 8.8-11.2 25.1-11.2 16.2 0 25 11.2 8.9 11.1 8.9 31.6zm57.3-0.2q0-15.4-2.9-21.7-2.8-6.4-9.7-6.4-6.8 0-9.8 6.4-2.9 6.3-2.9 21.7 0 15.6 2.9 22 3 6.4 9.8 6.4 6.8 0 9.7-6.4 2.9-6.4 2.9-22zm21.3 0.2q0 20.5-8.8 31.6-8.9 11.1-25.1 11.1-16.3 0-25.1-11.1-8.8-11.1-8.8-31.6 0-20.5 8.8-31.6 8.8-11.2 25.1-11.2 16.2 0 25.1 11.2 8.8 11.1 8.8 31.6zm18.6 41.1v-14.7h18.8v-53.2l-19.3 4v-14.5l19.2-4h20.2v67.7h18.7v14.7zm78.7 0v-14.7h18.7v-53.2l-19.2 4v-14.5l19.1-4h20.2v67.7h18.8v14.7zm117.3-41.3q0-15.4-2.9-21.7-2.9-6.4-9.7-6.4-6.8 0-9.8 6.4-2.9 6.3-2.9 21.7 0 15.6 2.9 22 3 6.4 9.8 6.4 6.8 0 9.7-6.4 2.9-6.4 2.9-22zm21.3 0.2q0 20.5-8.9 31.6-8.8 11.1-25 11.1-16.3 0-25.1-11.1-8.8-11.1-8.8-31.6 0-20.5 8.8-31.6 8.8-11.2 25.1-11.2 16.2 0 25 11.2 8.9 11.1 8.9 31.6zm18.6 41.1v-14.7h18.8v-53.2l-19.3 4v-14.5l19.2-4h20.2v67.7h18.7v14.7zm78.6 0v-14.7h18.8v-53.2l-19.2 4v-14.5l19.1-4h20.2v67.7h18.8v14.7zm78.6 0v-14.7h18.7v-53.2l-19.2 4v-14.5l19.1-4h20.2v67.7h18.8v14.7z"/></svg>