<svg xmlns="http://www.w3.org/2000/svg" xmlns:xlink="http://www.w3.org/1999/xlink" width="50" height="13" viewBox="0 0 50 13" fill="none"><path d="M10.5781 6.39867C10.5781 8.76744 8.65781 10.6877 6.28904 10.6877C3.92027 10.6877 2 8.76744 2 6.39867C2 4.0299 3.92027 2.10963 6.28904 2.10963C8.65781 2.10963 10.5781 4.0299 10.5781 6.39867ZM19.8049 2.14419L21.105 3.47762L20.8931 3.69493L19.6637 2.43396C19.6325 2.40197 19.6093 2.35388 19.6093 2.28907C19.6093 2.22427 19.6325 2.17617 19.6637 2.14419C19.6809 2.12651 19.6942 2.11939 19.7027 2.11587C19.7125 2.11181 19.7231 2.10963 19.7343 2.10963C19.7455 2.10963 19.7561 2.11181 19.7659 2.11587C19.7744 2.11939 19.7877 2.12651 19.8049 2.14419ZM23.6865 6.55982L23.8983 6.34252L24.1102 6.55982L23.8983 6.77712L23.6865 6.55982ZM26.9035 3.69493L26.6917 3.47762L27.9918 2.14419C28.009 2.12651 28.0223 2.11939 28.0308 2.11587C28.0406 2.1118 28.0512 2.10963 28.0624 2.10963C28.0735 2.10963 28.0842 2.1118 28.094 2.11587C28.1025 2.11939 28.1158 2.12651 28.133 2.14419C28.1642 2.17617 28.1874 2.22427 28.1874 2.28907C28.1874 2.35388 28.1642 2.40197 28.133 2.43396L26.9035 3.69493ZM26.6917 9.64202L26.9035 9.42471L27.8187 10.3634C27.8499 10.3954 27.8731 10.4435 27.8731 10.5083C27.8731 10.5731 27.8499 10.6212 27.8187 10.6531C27.8015 10.6708 27.7882 10.6779 27.7797 10.6815C27.77 10.6855 27.7593 10.6877 27.7481 10.6877C27.737 10.6877 27.7263 10.6855 27.7165 10.6815C27.7081 10.6779 27.6948 10.6708 27.6775 10.6531L26.6917 9.64202ZM20.8931 9.42472L21.105 9.64202L20.1192 10.6531C20.1019 10.6708 20.0886 10.6779 20.0801 10.6815C20.0704 10.6855 20.0597 10.6877 20.0485 10.6877C20.0374 10.6877 20.0267 10.6855 20.0169 10.6815C20.0085 10.6779 19.9952 10.6708 19.9779 10.6531C19.9468 10.6212 19.9236 10.5731 19.9236 10.5083C19.9236 10.4435 19.9468 10.3954 19.9779 10.3634L20.8931 9.42472ZM37.1088 8.89479L41.5079 2.49612C41.9626 1.83463 42.9394 1.83463 43.3941 2.49612L47.7932 8.89479C48.3153 9.65417 47.7716 10.6877 46.8501 10.6877H38.0519C37.1304 10.6877 36.5867 9.65417 37.1088 8.89479Z" stroke="#A3DE83" stroke-width="4"></path></svg>